<?xml version="1.0" encoding="utf-8"?>
<!-- Generator: Adobe Illustrator 25.4.1, SVG Export Plug-In . SVG Version: 6.00 Build 0)  -->
<svg version="1.1" id="Layer_1" xmlns="http://www.w3.org/2000/svg" xmlns:xlink="http://www.w3.org/1999/xlink" x="0px" y="0px"
	 viewBox="0 0 104.01 112.89" style="enable-background:new 0 0 104.01 112.89;" xml:space="preserve">
<style type="text/css">
	.st0{fill:#ADB8BB;}
	.st1{fill:none;}
	.st2{fill:#665B4E;}
</style>
<path class="st0" d="M29.73,62.13l0.54,0.38l0.04,0.23l-0.46,0.08l-0.54-0.38l0.19-0.27L29.73,62.13z M25.81,57.35l0.27,0.19
	l0.04,0.23l-0.19,0.27l-0.23,0.04l-0.27-0.19l-0.04-0.23l0.19-0.27L25.81,57.35z M26.06,43.74l0.7,1.31l0.12,0.69l-0.38,0.54
	l-0.23,0.04l0.03-1.19l-0.66-1.07l0.19-0.27L26.06,43.74z M27.64,48.7l0.78,1.77l-0.19,0.27L28,50.78l-0.27-0.19l-0.04-0.23
	l0.23-0.04l-0.7-1.31l0.19-0.27L27.64,48.7z M34.19,42.57l0.27,0.19l0.04,0.23l-0.19,0.27l-0.23,0.04l-0.27-0.19l-0.04-0.23
	l0.19-0.27L34.19,42.57z M39.66,65.88l0.46-0.08l0.24,1.39l0.23-0.04l-0.08-0.46l0.46-0.08l0.12,0.69l-0.38,0.54l-0.54-0.38
	l0.12,0.69c0.46-0.08,0.9,0.16,1.32,0.72l0.04,0.23l-1.11,0.43l-1.2-1.46c-0.77,0.13-1.19-0.03-1.27-0.49l0.19-0.27l0.23-0.04
	l0.77,0.34C39.71,67.54,39.85,66.96,39.66,65.88z M38.5,64.66l0.54,0.38l-0.38,0.54l-0.58-0.61l0.19-0.27L38.5,64.66z M39.54,70.66
	l0.66,1.07l-0.19,0.27l-0.23,0.04l-0.66-1.07l0.19-0.27L39.54,70.66z M35.73,48.72l0.73,0.11l0.08,0.46l-0.46,0.08l-0.54-0.38
	L35.73,48.72z M36.3,47.91l0.27,0.19l0.04,0.23l-0.19,0.27l-0.23,0.04l-0.27-0.19l-0.04-0.23l0.19-0.27L36.3,47.91z M77.04,15.38
	c0.24,0.91,0.78,1.29,1.63,1.14l0.19-0.27c0.18,0.6,0.47,0.87,0.85,0.8l2.17,7l1.24,7.16l1.1,9.09l1.18,4.08l0.09,1.89l3.44,18.43
	l-0.06,2.39l0.72,4.16c0.89,0.56,1.6,2.34,2.12,5.34c-0.19,0.75-0.43,1.19-0.72,1.32l0.43,1.11l0.76,4.39l-0.72,6.79
	c0.21,1.19-0.91,4.32-3.37,9.39c-0.94,3.49-2.12,5.36-3.55,5.61c-1.28,1.09-2.85,2.08-4.72,2.96l0.04,0.23l-1.19-0.03l-0.23,0.04
	c0.08,0.46-0.03,0.72-0.34,0.77l-0.92,0.16l-0.54-0.38l1.15-0.2l-0.39-0.88l-2.04,0.59l-0.12-0.69l-1.39,0.24l-0.61,0.58l-0.73-0.11
	l-1.11,0.43l-1.47-0.22l0.04,0.23l0.27,0.19l0.04,0.23l-0.19,0.27l-0.69,0.12c-3.14-0.96-6.69-1.77-10.65-2.43l-5.79-1.85
	c-3.09-1.8-5.41-3.78-6.98-5.92l-0.66-1.07l-0.52-3c-0.34-4.7-0.05-7.13,0.87-7.29l0.23-0.04l0.12,0.69l0.69-0.12l-0.04-0.23
	l-0.27-0.19l-0.04-0.23c0.39-1.18,0.99-1.84,1.8-1.98l0.38-0.54l-0.39-0.88c1.67-3.62,3.7-5.64,6.09-6.05l4.73-1.54l0.46-0.08
	c3.46,0.03,6.11,0.68,7.95,1.95c1.12,1.87,1.77,3.34,1.96,4.42l0.24,1.39c0.28,1.62-0.44,3.41-2.16,5.37l-1.54,0.74l-1.39,0.24
	c-2.05-0.87-3.22-2.1-3.49-3.68l-0.32-1.85l0.57-0.81c0.31-0.05,0.6,0.69,0.86,2.23l1.32,0.72l1.39-0.24
	c0.5-0.09,0.83-0.94,0.98-2.55c-1.32-3.26-3.08-4.7-5.27-4.32c-5,1.15-7.74,3.13-8.24,5.95l-1.33,3.32l0.76,4.39
	c1.79,3.26,3.62,5.08,5.47,5.47c2.01,1.28,3.96,2.05,5.87,2.31c0.09,0.54,3.03,0.58,8.82,0.13c5.01-2.18,7.4-3.94,7.17-5.29
	l1.21-4.02c0.54-0.09,0.67-2.1,0.38-6.01l-0.76-4.39l-0.68-9.4l-1.92-9.66l-0.54-0.38l-0.16-0.92l0.34-0.77l-0.2-1.15l-0.58-0.61
	l-0.6-3.46c-0.51,0.72-1.21,1.24-2.11,1.56c-0.84,2.25-3.91,6.51-9.2,12.78c-1.29,1.49-4.18,2.63-8.68,3.41
	c-2.76-0.35-5.01-1.47-6.77-3.34c-3.16-3.57-4.96-6.67-5.42-9.29l-0.28-1.62c-0.19-1.08-0.17-3.7,0.06-7.86l-0.27-0.19l0.09-3.58
	l-0.27-0.19c0.66-0.79,1.03-1.8,1.14-3.05l-0.23,0.04l-0.54-0.38l0.19-0.27l0.23-0.04l0.27,0.19l0.23-0.04
	c0.55-0.97,1.43-3.66,2.64-8.07c5.03-7.1,9.34-11.49,12.93-13.19c2.77-2.07,7.87-3.75,15.3-5.04l0.27,0.19l-0.19,0.27l0.08,0.46
	c0.73-0.13,1.3-0.07,1.7,0.18l-0.24-1.39l0.69-0.12l-0.04-0.23l-0.51-1.58l0.19-0.27L77.04,15.38z M40.94,49.96
	c0.81,0.1,1.27,0.49,1.4,1.18l-0.19,0.27l-0.23,0.04l-1.16-1.23L40.94,49.96z M69.31,22.91c-3.89,0.68-7.38,2.47-10.48,5.39
	c-1.35,0.23-3.34,4.31-5.97,12.22l-0.7,4.17l0.53,4.43l0.28,1.62c0.44,2.54,2.23,5.08,5.37,7.63c1.06,0.61,3.78,0.77,8.17,0.48
	l0.23-0.04c0.73-0.13,2.35-1.76,4.86-4.89c-0.1-0.58,0.88-1.78,2.94-3.6l-2.29-13.16c-0.59-3.42-0.82-6.08-0.67-7.97l-1.29-3.34
	l-0.56-3.23l-0.19,0.27L69.31,22.91z M81.72,108.06l0.27,0.19l0.04,0.23c-1,0.89-2.37,1.68-4.11,2.38l-0.96-0.07l-3.61,1.1
	l-0.96-0.07l-1.77,0.78l-0.46,0.08l-1-0.3l-0.65,0.35c-0.04-0.23-1.26-0.42-3.66-0.55l-0.81-0.57l0.19-0.27l4.86,0.58l1.81-0.55
	l0.96,0.07l3.19-0.79l2.31-0.4l3.96-1.88l0.19-0.27L81.72,108.06z M61.76,73.94l0.92-0.16l0.08,0.46l-0.92,0.16L61.76,73.94z
	 M69.25,110.22l1.62-0.28l0.08,0.46l-1.62,0.28L69.25,110.22z M72.59,108.93l0.27,0.19l0.12,0.69l-1.19-0.03l-0.08-0.46
	L72.59,108.93z M73.16,112.16l0.27,0.19l0.04,0.23l-0.19,0.27l-0.23,0.04l-0.27-0.19l-0.04-0.23l0.19-0.27L73.16,112.16z
	 M61.8,34.44l0.27,0.19l0.04,0.23l-0.19,0.27l-0.23,0.04l-0.27-0.19l-0.04-0.23l0.19-0.27L61.8,34.44z M65.52,32.61l0.58,0.61
	l0.04,0.23l-0.23,0.04l-0.81-0.57l0.19-0.27L65.52,32.61z M69.21,30.54l0.54,0.38l-0.19,0.27l-0.23,0.04l-0.54-0.38l0.19-0.27
	L69.21,30.54z M83.2,109.7l0.54,0.38l-0.84,0.62l-0.27-0.19l-0.04-0.23L83.2,109.7z M71.16,13.73l0.27,0.19l0.04,0.23l-0.19,0.27
	l-0.23,0.04l-0.27-0.19l-0.04-0.23l0.19-0.27L71.16,13.73z M71.36,14.88l0.27,0.19l0.2,1.15l-0.46,0.08l-0.43-1.11l0.19-0.27
	L71.36,14.88z M73.12,12.67l0.27,0.19l0.04,0.23l-0.19,0.27l-0.23,0.04l-0.27-0.19l-0.04-0.23l0.19-0.27L73.12,12.67z M75.32,13
	c0.13,1.41,0.01,2.14-0.33,2.2l-0.81-0.57l-0.04-0.23c0.46-0.08,0.64-0.43,0.53-1.04l0.19-0.27L75.32,13z M75.66,15.62l0.27,0.19
	l0.04,0.23l-0.19,0.27l-0.23,0.04l-0.27-0.19l-0.04-0.23l0.19-0.27L75.66,15.62z M75.39,16.86l0.23-0.04l0.54,0.38l-0.19,0.27
	l-0.23,0.04l-0.27-0.19L75.39,16.86z M43.54,47.13l0.04,0.23l0.35,0.65l0.46-0.08l-0.04-0.23L44,47.05L43.54,47.13z M44.13,49.17
	l0.24,1.39l0.46-0.08l-0.24-1.39L44.13,49.17z M51.14,64.84l0.12,0.69l1.19,0.03l-0.12-0.69L51.14,64.84z M47.87,43.28l0.08,0.46
	l0.69-0.12l-0.08-0.46L47.87,43.28z M48.42,39.62l0.12,0.69l0.23-0.04l0.38-0.54l-0.04-0.23L48.42,39.62z M53.95,64.59l0.08,0.46
	l0.69-0.12l-0.08-0.46L53.95,64.59z M65.46,80.19l0.08,0.46l0.69-0.12l-0.08-0.46L65.46,80.19z M75.9,107.4l0.08,0.46l0.69-0.12
	l-0.08-0.46L75.9,107.4z M78.67,101.45l1.15-0.2l0.03-1.19C78.93,100.22,78.54,100.68,78.67,101.45z M79.14,102.8l0.12,0.69
	l0.46-0.08l-0.12-0.69L79.14,102.8z M79.48,102.02l0.04,0.23l0.54,0.38l0.23-0.04l-0.12-0.69L79.48,102.02z M87.41,95.65l0.16,0.92
	l1.15-0.2c-0.13-0.77-0.35-1.13-0.66-1.07L87.41,95.65z M49.59,35.37l-0.07,0.96l0.69-0.12l-0.16-0.92L49.59,35.37z M71.95,25.78
	l0.12,0.69l0.69-0.12l-0.04-0.23l-0.54-0.38L71.95,25.78z M80.05,63.16l0.17,0.67l0.69-0.12l0.38-0.54l-0.13-0.44L80.05,63.16z
	 M79.42,48.27l0.16,0.92l0.69-0.12l-0.04-0.23l-0.35-0.65L79.42,48.27z M75.88,19.63c0.11,0.62-0.07,0.96-0.53,1.04l0.2,1.15
	l0.69-0.12l-0.05-1.66l-0.08-0.46L75.88,19.63z M77.35,32.22l0.04,0.23l0.89,1.03l0.92-0.16l0.38-0.54l-0.08-0.46L77.35,32.22z
	 M78.76,36.25l0.04,0.23l0.54,0.38l0.23-0.04l-0.12-0.69L78.76,36.25z M78.47,15.37l0.23-0.04l0.04,0.23l-0.11,0.73l-0.46,0.08
	l-0.08-0.46L78.47,15.37z M81.62,14.35l0.27,0.19l0.04,0.23l-0.61,0.58l-1.15,0.2l-0.08-0.46C80.81,14.96,81.33,14.72,81.62,14.35z
	 M85.82,31.7l0.27,0.19l0.04,0.23l-0.19,0.27l-0.23,0.04l-0.27-0.19l-0.04-0.23l0.19-0.27L85.82,31.7z M85,24.23l0.54,0.38
	l-0.19,0.27L84.66,25l-0.04-0.23L85,24.23z M86.38,29.46l0.78,1.77l0.2,1.15l-0.57,0.81l-0.46,0.08l-0.04-0.23L86.82,32l-0.04-0.23
	l-0.82-2l0.19-0.27L86.38,29.46z M85.39,19.64l0.58,0.61l0.2,1.15l-0.38,0.54l-0.54-0.38l0.38-0.54l-0.08-0.46l-0.58-0.61l0.19-0.27
	L85.39,19.64z M86.15,24.03l1.47,0.22l0.69-0.12l0.04,0.23l-0.38,0.54l-0.92,0.16l-1.32-0.72l0.19-0.27L86.15,24.03z M84.91,12.05
	l0.27,0.19l0.28,1.62c0.19,1.12,0.07,1.77-0.37,1.97l-0.54-0.38c0.44-0.2,0.57-0.85,0.37-1.97l-0.43-1.11l0.19-0.27L84.91,12.05z
	 M84.32,10.01l0.69-0.12l0.08,0.46l-0.69,0.12L84.32,10.01z M89.57,32.71l0.27,0.19l0.04,0.23l-0.19,0.27l-0.23,0.04l-0.27-0.19
	l-0.04-0.23l0.19-0.27L89.57,32.71z M88.8,21.43l0.58,0.61l-0.19,0.27l-0.23,0.04l-0.54-0.38L88.8,21.43z M90.35,29.01l0.46-0.08
	l0.12,0.69l-0.46,0.08L90.35,29.01z M90.72,27.04c0.69,0.08,1.22,0.38,1.59,0.91l-0.38,0.54l-1.4-1.18L90.72,27.04z M94.58,39.69
	c0.66,0.12,1,0.3,1.04,0.53l-0.19,0.27l-0.23,0.04l-0.81-0.57L94.58,39.69z M91.75,13.78l1.04,0.53l-0.19,0.27l-0.23,0.04
	l-0.77-0.34l-0.19,0.27l-1.15,0.2l-0.08-0.46L91.75,13.78z M94.2,27.86l0.46-0.08l0.04,0.23c0.15,1.56-0.02,2.38-0.52,2.47
	l-0.27-0.19L94.2,27.86z M92.32,18.44l0.46-0.08l0.12,0.69l-0.46,0.08L92.32,18.44z M95.54,32.86l0.27,0.19l0.04,0.23l-0.57,0.81
	l-0.27-0.19L95.54,32.86z M93.22,20.9l0.23-0.04l0.54,0.38l-0.38,0.54l-0.27-0.19L93.22,20.9z M97.88,31.27l0.27,0.19l0.04,0.23
	L98,31.96l-1.15,0.2l-0.08-0.46L97.88,31.27z M97.2,21.87l0.27,0.19l0.04,0.23l-0.19,0.27l-0.23,0.04l-0.27-0.19l-0.04-0.23
	l0.19-0.27L97.2,21.87z M98.49,30.69l0.46-0.08l0.12,0.69l-0.46,0.08L98.49,30.69z M101.17,39.26l0.27,0.19l0.04,0.23l-0.19,0.27
	l-0.69,0.12l-0.08-0.46L101.17,39.26z M99.11,24.63l0.27,0.19l0.04,0.23l-0.19,0.27L99,25.36l-0.27-0.19l-0.04-0.23l0.19-0.27
	L99.11,24.63z M99.52,17.42l0.27,0.19l0.08,0.46l-0.23,0.04l-0.54-0.38l0.19-0.27L99.52,17.42z M101.01,27.39l0.46-0.08l0.54,0.38
	l-0.19,0.27L101.59,28l-0.54-0.38L101.01,27.39z M103.24,27.19l0.23-0.04l0.54,0.38l-0.38,0.54l-0.27-0.19L103.24,27.19z
	 M101.59,15.64l0.46-0.08l0.54,0.38l0.04,0.23l-0.46,0.08l-0.54-0.38L101.59,15.64z"/>
<g>
	<polygon class="st1" points="27.51,59.16 27.75,59.36 27.79,59.59 27.63,59.85 27.42,59.89 27.18,59.69 27.14,59.46 27.3,59.2 	"/>
	<polygon class="st2" points="27.48,45.61 28.13,46.92 28.25,47.61 27.92,48.15 27.72,48.18 27.72,46.99 27.11,45.91 27.27,45.64 	
		"/>
	<g>
		<polygon class="st0" points="40.83,33.83 40.79,33.6 40.04,33.73 39.85,34 40.39,34.38 		"/>
		<polygon class="st0" points="19.09,41.54 19.17,42 19.96,42.1 20.19,42.06 20.38,41.79 19.84,41.41 		"/>
		<polygon class="st0" points="37.1,54.82 37.64,55.2 37.87,55.16 37.33,54.78 		"/>
		<polygon class="st0" points="36.45,61 36.22,61.04 36.04,61.37 36.08,61.6 36.35,61.79 36.58,61.75 36.77,61.48 36.73,61.25 		"/>
		<polygon class="st0" points="36.65,58.05 36.69,58.28 37.29,58.65 37.25,58.42 		"/>
		<polygon class="st0" points="39.07,59.36 38.61,59.44 38.54,60.4 38.58,60.63 39.75,60.19 39.67,59.73 		"/>
		<path class="st0" d="M39.46,50.25l1.42,1l0.23-0.04l0.18-0.33l-0.04-0.23l-0.27-0.19c-0.61,0.11-0.96-0.07-1.04-0.53l-0.23,0.04
			L39.46,50.25z"/>
		<polygon class="st0" points="38.92,54.03 38.17,54.16 38.25,54.62 38.54,54.57 		"/>
		<polygon class="st0" points="38.87,49.64 39.24,49.04 38.87,46.9 38.33,46.52 38.1,46.56 38.16,48.28 38.24,48.74 		"/>
		<polygon class="st0" points="38.55,51.89 38.92,51.29 38.84,50.83 38,51.45 		"/>
		<path class="st0" d="M37.43,56.73c-0.65,0.12-1.01,0.02-1.06-0.29l-0.46,0.08l-0.11,0.73l0.58,0.61l1.4-0.48l-0.08-0.46
			L37.43,56.73z"/>
		<polygon class="st0" points="52.82,35.44 53.49,34.85 53.44,34.56 53.17,34.37 52.55,35.25 52.59,35.48 		"/>
		<polygon class="st0" points="0.41,7.25 0.18,7.29 0,7.62 0.04,7.85 0.31,8.04 0.54,8 0.79,7.72 0.75,7.49 		"/>
		<polygon class="st0" points="2.66,39.75 2.43,39.79 2.18,40.07 2.22,40.3 2.55,40.48 2.78,40.44 2.97,40.17 2.93,39.94 		"/>
		<rect x="55.3" y="9.68" transform="matrix(0.9853 -0.1706 0.1706 0.9853 -0.88 9.6398)" class="st0" width="0.7" height="0.53"/>
		<path class="st0" d="M2.37,35.34l-0.18,0.33c0.04,0.23,0.38,0.41,1.04,0.53l0.23-0.04l-0.04-0.23C3.38,35.7,3.03,35.5,2.37,35.34z
			"/>
		<polygon class="st0" points="53.06,54.96 52.87,55.23 52.91,55.46 53.18,55.65 53.41,55.61 53.6,55.34 53.56,55.11 53.29,54.92 		
			"/>
		
			<rect x="54.27" y="56.14" transform="matrix(0.9852 -0.1714 0.1714 0.9852 -8.849 10.2395)" class="st0" width="1.23" height="0.47"/>
		<polygon class="st0" points="9.84,54.38 9.82,55.63 9.9,56.09 10.36,56.01 10.3,54.3 		"/>
		<polygon class="st0" points="12.1,50.6 11.91,50.87 12.51,51.24 12.89,50.7 12.85,50.47 		"/>
		<polygon class="st0" points="13.94,51.23 13.88,52.25 13.92,52.48 14.19,52.67 14.63,52.12 14.46,51.14 		"/>
		<polygon class="st0" points="15.29,53.2 15.88,53.87 16.11,53.83 16.3,53.56 15.67,52.66 		"/>
		<polygon class="st0" points="11.38,51.92 10.55,52.6 11.09,52.98 11.7,52.4 11.65,52.11 		"/>
		<polygon class="st0" points="7.83,51.34 7.64,51.61 8.22,52.22 8.51,52.17 8.7,51.9 8.06,51.3 		"/>
		<polygon class="st0" points="5.61,20.09 5.38,20.13 5.19,20.4 5.23,20.63 5.51,20.88 5.74,20.84 5.92,20.51 5.88,20.28 		"/>
		<polygon class="st0" points="17.18,29.14 16.8,29.68 16.84,29.91 17.3,29.83 17.49,29.56 17.45,29.33 		"/>
		<polygon class="st0" points="13.34,44.73 13.05,44.78 12.86,45.05 13.46,45.42 13.69,45.38 13.61,44.92 		"/>
		<polygon class="st0" points="55.33,61.17 55.1,61.21 54.91,61.48 54.95,61.71 55.23,61.96 55.46,61.92 55.64,61.59 55.6,61.36 		
			"/>
		<polygon class="st0" points="40.86,56.61 40.61,56.89 41.25,57.49 41.63,56.95 41.09,56.57 		"/>
		<polygon class="st0" points="56.27,18.66 56.04,18.7 55.85,18.97 55.89,19.2 56.16,19.39 56.39,19.35 56.64,19.07 56.6,18.84 		
			"/>
		<polygon class="st0" points="54.46,58.88 54.23,58.92 54.04,59.19 54.08,59.42 54.35,59.61 54.58,59.57 54.77,59.3 54.73,59.07 		
			"/>
		<polygon class="st0" points="53.28,59.33 53.05,59.37 52.86,59.64 52.9,59.87 53.17,60.06 53.4,60.02 53.65,59.74 53.61,59.51 		
			"/>
		<polygon class="st0" points="52.63,42.55 52.2,43.16 52.24,43.39 52.51,43.58 53.18,42.99 		"/>
		<polygon class="st0" points="54.52,57.86 54.71,57.59 54.67,57.36 54.4,57.17 54.17,57.21 53.98,57.48 54.02,57.71 54.29,57.9 		
			"/>
		<polygon class="st0" points="58.22,22.72 58.41,22.45 57.78,21.55 57.41,22.15 57.99,22.76 		"/>
		<polygon class="st0" points="68.63,47.38 68.36,47.19 68.13,47.23 67.94,47.5 67.98,47.73 68.25,47.92 68.48,47.88 68.67,47.61 		
			"/>
		<polygon class="st0" points="60.26,11.84 60.07,12.11 60.11,12.34 60.38,12.53 60.76,11.99 60.72,11.76 		"/>
		<polygon class="st0" points="61.05,13.67 61.09,13.9 61.36,14.09 62.22,13.23 61.67,12.79 		"/>
		<polygon class="st0" points="58.39,34.95 58.16,34.99 58.2,35.22 58.74,35.6 58.97,35.56 58.93,35.33 		"/>
		<polygon class="st0" points="58.26,60.9 58.03,60.94 57.84,61.21 57.89,61.5 58.16,61.69 58.39,61.65 58.58,61.38 58.53,61.09 		
			"/>
		<polygon class="st0" points="55.98,28.29 55.75,28.33 55.56,28.6 55.83,28.79 55.87,29.02 55.68,29.29 55.72,29.52 55.99,29.71 
			56.43,29.16 56.31,28.47 		"/>
		<polygon class="st0" points="45.25,29.86 45.07,30.19 45.11,30.42 45.38,30.61 45.76,30.07 45.71,29.78 		"/>
		
			<rect x="45.52" y="25.35" transform="matrix(0.9852 -0.1713 0.1713 0.9852 -3.7044 8.2382)" class="st0" width="0.7" height="0.47"/>
		<polygon class="st0" points="46.33,44.65 46.1,44.69 45.91,44.96 46.45,45.34 46.68,45.3 46.6,44.84 		"/>
		<path class="st0" d="M43.54,56.62c0.08,0.46-0.04,0.72-0.34,0.77l0.55,0.44l0.37-0.6L44,56.54L43.54,56.62z"/>
		<polygon class="st0" points="49.08,30.68 49.16,31.14 49.89,31.25 50.08,30.98 49.54,30.6 		"/>
		<polygon class="st0" points="40.97,55.87 41.51,56.25 41.74,56.21 41.93,55.94 41.35,55.33 		"/>
		<polygon class="st0" points="35.99,17.25 36.26,17.44 36.49,17.4 36.68,17.13 36.64,16.9 36.37,16.71 36.14,16.75 35.95,17.02 		
			"/>
		<polygon class="st0" points="49.61,36.47 49.32,36.52 49.13,36.79 49.17,37.02 49.44,37.21 49.73,37.16 49.92,36.89 49.88,36.66 
					"/>
		<polygon class="st0" points="36.58,15.18 36.86,15.43 37.09,15.39 37.27,15.06 36.73,14.68 36.5,14.72 		"/>
		<polygon class="st0" points="36.28,12.09 36.09,12.36 36.67,12.97 37.11,12.42 36.51,12.05 		"/>
		<polygon class="st0" points="35.12,14.01 34.66,14.09 34.47,14.36 34.51,14.59 34.78,14.78 35.16,14.24 		"/>
	</g>
</g>
<rect x="24.2" y="53.93" class="st1" width="2.38" height="1.57"/>
<polygon class="st0" points="29.1,95.49 29.37,95.68 29.41,95.91 29.22,96.18 28.99,96.22 28.72,96.03 28.68,95.8 28.87,95.53 "/>
<polyline class="st0" points="28.28,88.02 28.82,88.4 28.63,88.67 27.94,88.79 "/>
<polygon class="st0" points="29.66,93.25 30.44,95.02 30.64,96.17 30.07,96.98 29.61,97.06 29.57,96.83 30.1,95.79 30.06,95.56 
	29.24,93.56 29.43,93.29 "/>
<polyline class="st0" points="28.25,83.74 28.44,83.47 28.67,83.43 29.25,84.04 29.45,85.19 29.07,85.73 28.53,85.35 28.91,84.81 
	28.83,84.35 28.25,83.74 "/>
<polygon class="st0" points="29.43,87.82 30.9,88.04 31.59,87.92 31.63,88.15 31.25,88.69 30.33,88.85 29.01,88.13 29.2,87.86 "/>
<path class="st0" d="M27.83,79.24c0.44-0.2,0.57-0.85,0.37-1.97"/>
<path class="st0" d="M28.19,75.84l0.27,0.19l0.28,1.62c0.19,1.12,0.07,1.77-0.37,1.97l-0.54-0.38"/>
<polyline class="st0" points="28.29,73.68 28.37,74.14 27.68,74.26 "/>
<polygon class="st0" points="32.85,96.5 33.12,96.69 33.16,96.92 32.97,97.19 32.74,97.23 32.47,97.04 32.43,96.81 32.62,96.54 "/>
<polygon class="st0" points="32.08,85.22 32.66,85.83 32.47,86.1 32.24,86.14 31.7,85.76 "/>
<rect x="33.69" y="92.75" transform="matrix(0.9852 -0.1713 0.1713 0.9852 -15.4508 7.1888)" class="st0" width="0.47" height="0.7"/>
<path class="st0" d="M34,90.83c0.69,0.08,1.22,0.38,1.59,0.91l-0.38,0.54l-1.4-1.18L34,90.83z"/>
<polygon class="st0" points="35.03,77.57 36.07,78.1 35.88,78.37 35.65,78.41 34.88,78.07 34.69,78.34 33.54,78.54 33.46,78.08 "/>
<path class="st0" d="M37.48,91.65l0.46-0.08l0.04,0.23c0.15,1.56-0.02,2.38-0.52,2.47l-0.27-0.19L37.48,91.65z"/>
<rect x="35.66" y="82.18" transform="matrix(0.9852 -0.1713 0.1713 0.9852 -13.6106 7.37)" class="st0" width="0.47" height="0.7"/>
<polygon class="st0" points="38.82,96.65 39.09,96.84 39.13,97.07 38.56,97.88 38.29,97.69 "/>
<polygon class="st0" points="36.5,84.69 36.73,84.65 37.27,85.03 36.89,85.57 36.62,85.38 "/>
<polygon class="st0" points="41.16,95.06 41.43,95.25 41.47,95.48 41.28,95.75 40.13,95.95 40.05,95.49 "/>
<polygon class="st0" points="40.48,85.66 40.75,85.85 40.79,86.08 40.6,86.35 40.37,86.39 40.1,86.2 40.06,85.97 40.25,85.7 "/>
<rect x="41.83" y="94.43" transform="matrix(0.9852 -0.1713 0.1713 0.9852 -15.6183 8.6084)" class="st0" width="0.47" height="0.7"/>
<polygon class="st0" points="42.39,88.42 42.66,88.61 42.7,88.84 42.51,89.11 42.28,89.15 42.01,88.96 41.97,88.73 42.16,88.46 "/>
<polygon class="st0" points="42.8,81.21 43.07,81.4 43.15,81.86 42.92,81.9 42.38,81.52 42.57,81.25 "/>
<polygon class="st0" points="44.29,91.18 44.75,91.1 45.29,91.48 45.1,91.75 44.87,91.79 44.33,91.41 "/>
<polygon class="st0" points="46.52,90.98 46.75,90.94 47.29,91.32 46.91,91.86 46.64,91.67 "/>
<polygon class="st0" points="44.87,79.43 45.33,79.35 45.87,79.73 45.91,79.96 45.45,80.04 44.91,79.66 "/>
<polyline class="st0" points="26.28,22.3 26.44,23.22 27.13,23.1 "/>
<path class="st1" d="M24.81,21.29l1.15-0.2c-0.13-0.77-0.35-1.13-0.66-1.07"/>
<polyline class="st0" points="26.95,25.28 27.33,24.74 27.2,24.3 "/>
<polyline class="st0" points="21.5,72.59 22.39,73.62 23.31,73.46 "/>
<path class="st0" d="M47.41,8.42l-0.58-3.35c-0.35-2-2.37-3.69-6.06-5.07l-0.92,0.16L39,1.08l-0.23,0.04L38.6,0.14
	c-3,0.53-6.12,3.68-9.32,9.43c-1.03-2.75-2.47-3.97-4.32-3.65L24.5,6l-1.81,2.28c-1.55,0.43-2.77,0.96-3.65,1.59
	c-1.71,2.44-3.32,5.41-4.81,8.92c-2.22,2.29-3.1,4.74-2.65,7.36l0.12,0.69l-0.69,0.12l-0.27-0.19l-1.17,0.44l0.08,0.46l1.3,0.31
	l0.79-0.91c0.95,0.67,1.73,0.95,2.35,0.84l0.23-0.04c0.47-0.08,1.12-0.53,1.97-1.35l3.39-0.35l0.23-0.04l-0.08-0.46l-1.25-0.02
	l-1.91,0.33l-0.19,0.27l0.53-2.77l-0.23,0.04c-0.56,1.57-0.99,2.38-1.3,2.43l-0.52,0.09c-0.85,0.15-1.38-0.18-1.6-0.97
	c0.42-1.7,1.3-2.67,2.65-2.9l0.75-0.13c1.54-0.26,2.84,0.74,3.91,3.01l-0.11,0.73l0.27,0.19l0.5,2.89l1.01,2.74l-0.08,1.26L23,35.41
	l0.08,0.46c0.62,3.58,0.83,5.85,0.64,6.79l0.6,2.1l0.33,1.91l1.09,7.66l0.87,0.56l0.14,2.18l0.4,0.94
	c-0.42,0.55-0.41,2.08,0.02,4.58l0.42,2.42l0.52-0.09c-0.08-0.46,0.38-1.54,1.4-3.22c1.06-0.27,2.11-1.18,3.15-2.75l-0.27-0.19
	l0.47-1.75l1.23,0.26c0.5-0.09,0.69-0.46,0.58-1.11c0.93-0.16,1.36-0.39,1.31-0.7l0.27,0.19l0.29-0.05l0.19-0.27l-0.27-0.19
	l1.13-1.68l-0.39-0.88l0.06-1.02l-0.04-0.23l-0.46,0.08l-0.08-0.46l0.54,0.38l0.23-0.04l0.19-0.27l-1.08-0.76l0.19-0.27l-0.44-1.17
	l0.4-1.79l-0.04-0.23l-0.27-0.19l-0.04-0.23l0.19-0.27l-0.04-0.23l-0.28-0.25l0.03-1.19l-0.4-0.94l0.38-0.54l-0.33-1.91l-0.54-0.38
	l-0.23,0.04l0.08,0.46l-0.23,0.04l-0.04-0.23c-0.1-0.58,0.15-0.96,0.75-1.14l-1.06-2.02l0.19-0.27l-0.04-0.23l-0.27-0.19l0.19-0.27
	l-0.04-0.23l-0.61,0.58l-0.12-0.69l0.56-0.87c-0.08-0.46,0.03-0.72,0.34-0.77l-0.25-1.44l-1.53-1.94l-1.38-9.33l-0.04-0.23
	l-0.2-3.89l-0.61-3.52c1.46-2.08,2.66-3.2,3.58-3.36l1.44-0.25c1.5-0.26,2.82,1.16,3.95,4.25l0.2,1.15
	c-0.22,4.48-1.19,6.87-2.92,7.17l-0.29,0.05c-0.85-0.28-1.34-0.85-1.49-1.7l-0.09-0.52l0.22-1.47l-0.05-0.29
	c-0.46,0.08-0.74,0.88-0.83,2.4l0.2,1.15c0.27,1.54,1.63,2.29,4.08,2.26l0.43-0.61c1.73-0.3,3.21-1.61,4.43-3.92
	c1.64-2.86,2.37-4.79,2.2-5.79C47.12,11.86,47.62,9.65,47.41,8.42z M21.19,13.93l-0.09-0.47l1.23-1.16l0.52-0.09l0.04,0.23
	c-0.25,0.84-0.74,1.32-1.47,1.45L21.19,13.93z M22.47,17.16l-0.23,0.04l-0.04-0.23l0.65-0.35l0.23-0.04l0.04,0.23L22.47,17.16z
	 M25.68,25.07l-0.69,0.12l-0.08-0.46l0.65-0.35l0.27,0.19l0.04,0.23L25.68,25.07z M27.85,34.13l-0.04-0.23l0.69-0.12l0.12,0.69
	l-0.23,0.04L27.85,34.13z M29.54,52.62l-0.2,0.04l-0.25-0.2l-0.04-0.23l0.21-0.03l-0.65-1.32l0.16-0.26l0.21-0.04l0.73,1.78
	L29.54,52.62z M30.23,46.44l0.11-0.73l0.23-0.04l0.12,0.69L30.23,46.44z M38.36,6.85l-0.27-0.19l-0.04-0.23l0.19-0.27l0.46-0.08
	l0.04,0.23L38.36,6.85z M39.35,8.41l-0.27-0.19l-0.04-0.23l0.62-0.88l0.55,0.44L39.35,8.41z"/>
</svg>
